<svg xmlns="http://www.w3.org/2000/svg" xmlns:xlink="http://www.w3.org/1999/xlink" width="500" zoomAndPan="magnify" viewBox="0 0 375 374.999991" height="500" preserveAspectRatio="xMidYMid meet" version="1.2"><defs><clipPath id="f1e831b670"><path d="M 24.011719 24.011719 L 351 24.011719 L 351 351 L 24.011719 351 Z M 24.011719 24.011719 "/></clipPath></defs><g id="f4b23c8d5f"><path style=" stroke:none;fill-rule:nonzero;fill:#eb00ff;fill-opacity:1;" d="M 187.5 101.863281 C 140.277344 101.863281 101.863281 140.277344 101.863281 187.5 C 101.863281 234.71875 140.277344 273.136719 187.5 273.136719 C 234.71875 273.136719 273.136719 234.71875 273.136719 187.5 C 273.136719 140.277344 234.71875 101.863281 187.5 101.863281 Z M 187.5 248.222656 C 154.015625 248.222656 126.773438 220.980469 126.773438 187.5 C 126.773438 154.015625 154.015625 126.773438 187.5 126.773438 C 220.980469 126.773438 248.222656 154.015625 248.222656 187.5 C 248.222656 220.980469 220.980469 248.222656 187.5 248.222656 Z M 187.5 248.222656 "/><path style=" stroke:none;fill-rule:nonzero;fill:#eb00ff;fill-opacity:1;" d="M 187.5 148.574219 C 166.035156 148.574219 148.574219 166.035156 148.574219 187.5 C 148.574219 208.964844 166.035156 226.425781 187.5 226.425781 C 208.964844 226.425781 226.425781 208.964844 226.425781 187.5 C 226.425781 166.035156 208.964844 148.574219 187.5 148.574219 Z M 187.5 148.574219 "/><g clip-rule="nonzero" clip-path="url(#f1e831b670)"><path style=" stroke:none;fill-rule:nonzero;fill:#eb00ff;fill-opacity:1;" d="M 256.007812 24.011719 L 118.988281 24.011719 C 66.617188 24.011719 24.011719 66.617188 24.011719 118.988281 L 24.011719 256.007812 C 24.011719 308.378906 66.617188 350.988281 118.988281 350.988281 L 256.007812 350.988281 C 308.378906 350.988281 350.988281 308.378906 350.988281 256.007812 L 350.988281 118.988281 C 350.988281 66.617188 308.378906 24.011719 256.007812 24.011719 Z M 329.1875 256.007812 C 329.1875 296.359375 296.359375 329.1875 256.007812 329.1875 L 118.988281 329.1875 C 78.636719 329.1875 45.808594 296.359375 45.808594 256.007812 L 45.808594 118.988281 C 45.808594 78.636719 78.636719 45.808594 118.988281 45.808594 L 256.007812 45.808594 C 296.359375 45.808594 329.1875 78.636719 329.1875 118.988281 Z M 329.1875 256.007812 "/></g><path style=" stroke:none;fill-rule:nonzero;fill:#eb00ff;fill-opacity:1;" d="M 284.035156 58.265625 C 266.003906 58.265625 251.335938 72.933594 251.335938 90.960938 C 251.335938 95.1875 252.167969 99.214844 253.636719 102.925781 C 256.957031 111.339844 263.660156 118.039062 272.070312 121.363281 C 275.78125 122.828125 279.808594 123.660156 284.035156 123.660156 C 302.066406 123.660156 316.730469 108.992188 316.730469 90.960938 C 316.730469 72.933594 302.066406 58.265625 284.035156 58.265625 Z M 284.035156 101.863281 C 278.023438 101.863281 273.136719 96.972656 273.136719 90.960938 C 273.136719 84.953125 278.023438 80.0625 284.035156 80.0625 C 290.042969 80.0625 294.933594 84.953125 294.933594 90.960938 C 294.933594 96.972656 290.042969 101.863281 284.035156 101.863281 Z M 284.035156 101.863281 "/></g></svg>