<svg xmlns="http://www.w3.org/2000/svg" xmlns:xlink="http://www.w3.org/1999/xlink" width="500" zoomAndPan="magnify" viewBox="0 0 375 374.999991" height="500" preserveAspectRatio="xMidYMid meet" version="1.2"><defs><clipPath id="42d8497d93"><path d="M 52 27 L 344.671875 27 L 344.671875 362.226562 L 52 362.226562 Z M 52 27 "/></clipPath><clipPath id="7f56420d13"><path d="M 39 12.726562 L 333 12.726562 L 333 348 L 39 348 Z M 39 12.726562 "/></clipPath><clipPath id="752fe20040"><path d="M 64 161 L 227 161 L 227 324 L 64 324 Z M 64 161 "/></clipPath><clipPath id="9bc8d29bae"><path d="M 194.5625 12.9375 L 252.035156 12.730469 C 252.65625 45.558594 268.476562 65.71875 286.175781 78.183594 C 286.175781 78.394531 286.386719 78.394531 286.386719 78.394531 C 298.882812 87.742188 313.664062 92.523438 332.199219 92.9375 L 332.199219 150.285156 C 299.503906 150.285156 272.433594 139.691406 252.035156 124.519531 L 251.820312 244.207031 C 251.40625 276.621094 237.457031 300.726562 220.589844 316.726562 C 219.132812 318.179688 217.675781 319.636719 216.007812 320.878906 C 194.355469 339.164062 173.113281 347.683594 143.964844 347.480469 C 115.230469 347.0625 93.574219 336.253906 75.253906 320.46875 C 61.511719 308.625 50.476562 293.246094 44.226562 272.046875 C 30.695312 225.507812 47.765625 179.378906 86.289062 152.988281 C 87.121094 152.363281 88.164062 151.742188 89.203125 151.117188 C 120.433594 131.582031 157.5 127.222656 194.355469 145.71875 C 194.5625 172.730469 194.355469 201.609375 194.355469 228.414062 C 185.609375 195.792969 142.296875 178.546875 113.980469 203.066406 C 113.773438 203.273438 113.148438 203.898438 112.941406 204.105469 C 101.695312 213.660156 96.699219 228.625 97.53125 244.625 C 99.613281 273.300781 123.351562 291.167969 149.171875 289.921875 C 149.171875 289.921875 149.378906 289.921875 149.378906 289.921875 C 174.363281 287.425781 194.980469 267.066406 194.355469 239.636719 Z M 194.5625 12.9375 "/></clipPath><clipPath id="1cde9268a5"><path d="M 52 27 L 332.609375 27 L 332.609375 348 L 52 348 Z M 52 27 "/></clipPath><clipPath id="47eba4fec2"><path d="M 194.5625 12.9375 L 252.035156 12.730469 C 252.65625 45.558594 268.476562 65.71875 286.175781 78.183594 C 286.175781 78.394531 286.386719 78.394531 286.386719 78.394531 C 298.882812 87.742188 313.664062 92.523438 332.199219 92.9375 L 332.199219 150.285156 C 299.503906 150.285156 272.433594 139.691406 252.035156 124.519531 L 251.820312 244.207031 C 251.40625 276.621094 237.457031 300.726562 220.589844 316.726562 C 219.132812 318.179688 217.675781 319.636719 216.007812 320.878906 C 194.355469 339.164062 173.113281 347.683594 143.964844 347.480469 C 115.230469 347.0625 93.574219 336.253906 75.253906 320.46875 C 61.511719 308.625 50.476562 293.246094 44.226562 272.046875 C 30.695312 225.507812 47.765625 179.378906 86.289062 152.988281 C 87.121094 152.363281 88.164062 151.742188 89.203125 151.117188 C 120.433594 131.582031 157.5 127.222656 194.355469 145.71875 C 194.5625 172.730469 194.355469 201.609375 194.355469 228.414062 C 185.609375 195.792969 142.296875 178.546875 113.980469 203.066406 C 113.773438 203.273438 113.148438 203.898438 112.941406 204.105469 C 101.695312 213.660156 96.699219 228.625 97.53125 244.625 C 99.613281 273.300781 123.351562 291.167969 149.171875 289.921875 C 149.171875 289.921875 149.378906 289.921875 149.378906 289.921875 C 174.363281 287.425781 194.980469 267.066406 194.355469 239.636719 Z M 194.5625 12.9375 "/></clipPath></defs><g id="2abefeb30d"><g clip-rule="nonzero" clip-path="url(#42d8497d93)"><path style=" stroke:none;fill-rule:evenodd;fill:#fe2c55;fill-opacity:1;" d="M 207.027344 27.570312 L 264.5 27.359375 C 265.121094 60.1875 280.945312 80.347656 298.640625 92.8125 C 298.640625 93.023438 298.855469 93.023438 298.855469 93.023438 C 311.347656 102.371094 326.128906 107.152344 344.664062 107.566406 L 344.664062 164.917969 C 311.96875 164.917969 284.902344 154.320312 264.5 139.148438 L 264.285156 258.839844 C 263.871094 291.253906 249.921875 315.355469 233.054688 331.351562 C 231.597656 332.808594 230.144531 334.265625 228.476562 335.507812 C 206.820312 353.796875 185.582031 362.316406 156.429688 362.109375 C 127.695312 361.695312 106.039062 350.886719 87.71875 335.09375 C 73.980469 323.253906 62.941406 307.875 56.695312 286.679688 C 43.160156 240.136719 60.230469 194.007812 98.753906 167.617188 C 99.585938 166.996094 100.628906 166.375 101.667969 165.746094 C 132.902344 146.214844 169.964844 141.851562 206.820312 160.34375 C 207.027344 187.359375 206.820312 216.242188 206.820312 243.042969 C 198.074219 210.421875 154.765625 193.175781 126.449219 217.695312 C 126.238281 217.902344 125.613281 218.527344 125.40625 218.734375 C 114.164062 228.292969 109.164062 243.253906 110 259.253906 C 112.082031 287.929688 135.816406 305.796875 161.636719 304.550781 C 161.636719 304.550781 161.84375 304.550781 161.84375 304.550781 C 186.832031 302.058594 207.445312 281.695312 206.820312 254.265625 Z M 207.027344 27.570312 "/></g><path style=" stroke:none;fill-rule:evenodd;fill:#fe2c55;fill-opacity:1;" d="M 157.886719 176.285156 C 202.503906 176.285156 238.640625 212.523438 238.640625 257.015625 C 238.640625 301.507812 202.503906 337.496094 157.886719 337.496094 C 113.277344 337.496094 77.136719 301.507812 77.136719 257.015625 C 77.136719 212.523438 113.277344 176.285156 157.886719 176.285156 Z M 157.886719 216.777344 C 180.070312 216.777344 198.265625 234.773438 198.265625 257.015625 C 198.265625 279.261719 180.070312 297.257812 157.886719 297.257812 C 135.707031 297.257812 117.511719 279.261719 117.511719 257.015625 C 117.511719 234.773438 135.707031 216.777344 157.886719 216.777344 Z M 157.886719 216.777344 "/><g clip-rule="nonzero" clip-path="url(#7f56420d13)"><path style=" stroke:none;fill-rule:evenodd;fill:#25f4ee;fill-opacity:1;" d="M 194.5625 12.9375 L 252.03125 12.730469 C 252.65625 45.558594 268.476562 65.714844 286.175781 78.183594 C 286.175781 78.390625 286.390625 78.390625 286.390625 78.390625 C 298.882812 87.742188 313.664062 92.523438 332.195312 92.9375 L 332.195312 150.285156 C 299.503906 150.285156 272.4375 139.6875 252.03125 124.519531 L 251.820312 244.207031 C 251.40625 276.621094 237.457031 300.726562 220.589844 316.722656 C 219.132812 318.179688 217.675781 319.632812 216.007812 320.878906 C 194.355469 339.167969 173.117188 347.683594 143.964844 347.476562 C 115.230469 347.0625 93.574219 336.257812 75.253906 320.464844 C 61.511719 308.625 50.476562 293.246094 44.230469 272.046875 C 30.695312 225.507812 47.765625 179.375 86.285156 152.988281 C 87.121094 152.363281 88.164062 151.742188 89.203125 151.117188 C 120.4375 131.585938 157.5 127.222656 194.355469 145.714844 C 194.5625 172.726562 194.355469 201.613281 194.355469 228.414062 C 185.609375 195.792969 142.300781 178.542969 113.980469 203.066406 C 113.773438 203.273438 113.148438 203.894531 112.941406 204.105469 C 101.695312 213.660156 96.699219 228.625 97.53125 244.621094 C 99.613281 273.300781 123.351562 291.167969 149.171875 289.921875 C 149.171875 289.921875 149.378906 289.921875 149.378906 289.921875 C 174.367188 287.425781 194.980469 267.066406 194.355469 239.636719 Z M 194.5625 12.9375 "/></g><g clip-rule="nonzero" clip-path="url(#752fe20040)"><g clip-rule="evenodd" clip-path="url(#9bc8d29bae)"><path style=" stroke:none;fill-rule:evenodd;fill:#25f4ee;fill-opacity:1;" d="M 145.414062 161.839844 C 190.03125 161.839844 226.171875 198.078125 226.171875 242.570312 C 226.171875 287.0625 190.03125 323.046875 145.414062 323.046875 C 100.804688 323.046875 64.664062 287.0625 64.664062 242.570312 C 64.664062 198.078125 100.804688 161.839844 145.414062 161.839844 Z M 145.414062 202.332031 C 167.601562 202.332031 185.792969 220.328125 185.792969 242.570312 C 185.792969 264.816406 167.601562 282.8125 145.414062 282.8125 C 123.238281 282.8125 105.039062 264.816406 105.039062 242.570312 C 105.039062 220.328125 123.238281 202.332031 145.414062 202.332031 Z M 145.414062 202.332031 "/></g></g><g clip-rule="nonzero" clip-path="url(#1cde9268a5)"><g clip-rule="evenodd" clip-path="url(#47eba4fec2)"><path style=" stroke:none;fill-rule:evenodd;fill:#000000;fill-opacity:1;" d="M 207.007812 27.570312 L 264.480469 27.363281 C 265.105469 60.191406 280.925781 80.347656 298.625 92.816406 C 298.625 93.023438 298.839844 93.023438 298.839844 93.023438 C 311.332031 102.375 326.113281 107.15625 344.644531 107.570312 L 344.644531 164.917969 C 311.953125 164.917969 284.886719 154.320312 264.480469 139.152344 L 264.269531 258.839844 C 263.855469 291.253906 249.90625 315.359375 233.035156 331.355469 C 231.582031 332.8125 230.125 334.265625 228.457031 335.511719 C 206.804688 353.796875 185.566406 362.316406 156.414062 362.109375 C 127.679688 361.695312 106.023438 350.890625 87.703125 335.097656 C 73.960938 323.257812 62.925781 307.878906 56.675781 286.679688 C 43.144531 240.140625 60.214844 194.007812 98.734375 167.621094 C 99.570312 166.996094 100.613281 166.375 101.652344 165.75 C 132.886719 146.21875 169.949219 141.855469 206.804688 160.347656 C 207.007812 187.359375 206.804688 216.246094 206.804688 243.046875 C 198.058594 210.425781 154.75 193.175781 126.429688 217.699219 C 126.222656 217.90625 125.597656 218.527344 125.390625 218.738281 C 114.144531 228.292969 109.148438 243.257812 109.980469 259.253906 C 112.0625 287.933594 135.800781 305.800781 161.621094 304.554688 C 161.621094 304.554688 161.828125 304.554688 161.828125 304.554688 C 186.8125 302.058594 207.429688 281.699219 206.804688 254.269531 C 207.007812 178.632812 207.007812 103 207.007812 27.570312 Z M 207.007812 27.570312 "/></g></g></g></svg>