<svg xmlns="http://www.w3.org/2000/svg" xmlns:xlink="http://www.w3.org/1999/xlink" width="500" zoomAndPan="magnify" viewBox="0 0 375 374.999991" height="500" preserveAspectRatio="xMidYMid meet" version="1.2"><defs><clipPath id="4846527e0e"><path d="M 16.5 29.539062 L 358.5 29.539062 L 358.5 345.289062 L 16.5 345.289062 Z M 16.5 29.539062 "/></clipPath></defs><g id="8740bf254c"><g clip-rule="nonzero" clip-path="url(#4846527e0e)"><path style=" stroke:none;fill-rule:nonzero;fill:#0dff00;fill-opacity:1;" d="M 200.328125 29.539062 C 113.152344 29.539062 42.484375 100.203125 42.484375 187.382812 C 42.472656 196.976562 43.332031 206.488281 45.058594 215.925781 C 46.789062 225.363281 49.355469 234.5625 52.765625 243.53125 L 17.636719 309.402344 C 17.386719 309.871094 17.207031 310.363281 17.097656 310.882812 C 16.984375 311.398438 16.945312 311.925781 16.980469 312.453125 C 17.015625 312.984375 17.125 313.496094 17.304688 313.996094 C 17.484375 314.496094 17.730469 314.960938 18.039062 315.390625 C 18.347656 315.820312 18.710938 316.199219 19.128906 316.53125 C 19.542969 316.859375 19.996094 317.125 20.488281 317.328125 C 20.976562 317.527344 21.488281 317.660156 22.015625 317.71875 C 22.542969 317.777344 23.066406 317.761719 23.589844 317.675781 L 95.6875 305.5625 C 99.253906 308.730469 102.957031 311.730469 106.796875 314.558594 C 110.636719 317.390625 114.597656 320.039062 118.679688 322.511719 C 122.761719 324.980469 126.945312 327.261719 131.234375 329.347656 C 135.523438 331.4375 139.898438 333.328125 144.359375 335.019531 C 148.820312 336.710938 153.347656 338.195312 157.945312 339.472656 C 162.539062 340.753906 167.183594 341.820312 171.878906 342.675781 C 176.570312 343.53125 181.292969 344.171875 186.046875 344.597656 C 190.796875 345.027344 195.558594 345.234375 200.328125 345.230469 C 287.503906 345.230469 358.175781 274.558594 358.175781 187.378906 C 358.175781 100.277344 287.433594 29.539062 200.328125 29.539062 Z M 200.796875 304.0625 C 196.992188 304.082031 193.199219 303.917969 189.410156 303.566406 C 185.625 303.210938 181.863281 302.675781 178.128906 301.953125 C 174.394531 301.234375 170.707031 300.332031 167.058594 299.25 C 163.414062 298.164062 159.832031 296.90625 156.308594 295.472656 C 152.785156 294.039062 149.34375 292.433594 145.976562 290.664062 C 142.613281 288.890625 139.34375 286.957031 136.167969 284.863281 C 132.992188 282.769531 129.925781 280.527344 126.96875 278.132812 C 124.015625 275.738281 121.183594 273.207031 118.476562 270.535156 L 75.285156 278.335938 C 74.769531 278.421875 74.25 278.4375 73.726562 278.382812 C 73.207031 278.324219 72.703125 278.199219 72.214844 278 C 71.730469 277.804688 71.277344 277.546875 70.863281 277.226562 C 70.449219 276.902344 70.085938 276.53125 69.773438 276.109375 C 69.460938 275.6875 69.214844 275.230469 69.027344 274.742188 C 68.84375 274.25 68.730469 273.742188 68.683594 273.222656 C 68.640625 272.699219 68.664062 272.179688 68.765625 271.664062 C 68.863281 271.148438 69.03125 270.65625 69.265625 270.1875 L 91.078125 228.433594 C 88.53125 221.660156 86.636719 214.710938 85.386719 207.582031 C 84.140625 200.453125 83.5625 193.273438 83.65625 186.039062 C 84.378906 121.96875 136.253906 70.699219 200.328125 70.699219 C 264.773438 70.699219 317.007812 122.941406 317.007812 187.382812 C 317.007812 251.769531 265.183594 303.808594 200.796875 304.0625 Z M 200.796875 304.0625 "/></g><path style=" stroke:none;fill-rule:nonzero;fill:#0dff00;fill-opacity:1;" d="M 183.832031 148.035156 L 178.738281 126.527344 C 178.59375 125.914062 178.417969 125.3125 178.207031 124.71875 C 178 124.125 177.761719 123.542969 177.492188 122.976562 C 177.222656 122.40625 176.921875 121.855469 176.59375 121.316406 C 176.265625 120.78125 175.910156 120.261719 175.527344 119.761719 C 175.144531 119.261719 174.738281 118.785156 174.304688 118.328125 C 173.871094 117.871094 173.417969 117.4375 172.9375 117.027344 C 172.460938 116.621094 171.960938 116.238281 171.441406 115.882812 C 170.921875 115.527344 170.386719 115.199219 169.832031 114.898438 C 169.28125 114.597656 168.710938 114.328125 168.132812 114.089844 C 167.550781 113.847656 166.957031 113.640625 166.351562 113.464844 C 165.75 113.285156 165.136719 113.140625 164.519531 113.027344 C 163.898438 112.914062 163.277344 112.832031 162.648438 112.785156 C 162.019531 112.738281 161.394531 112.726562 160.765625 112.742188 C 160.132812 112.761719 159.507812 112.8125 158.886719 112.898438 C 158.261719 112.984375 157.644531 113.101562 157.03125 113.25 C 156.421875 113.402344 155.820312 113.582031 155.226562 113.796875 L 143.480469 118.023438 C 142.527344 118.367188 141.613281 118.785156 140.734375 119.285156 C 139.855469 119.78125 139.023438 120.347656 138.242188 120.984375 C 137.457031 121.625 136.734375 122.324219 136.070312 123.082031 C 135.402344 123.84375 134.808594 124.652344 134.277344 125.511719 C 133.75 126.375 133.296875 127.273438 132.921875 128.210938 C 132.546875 129.148438 132.25 130.109375 132.035156 131.097656 C 131.820312 132.082031 131.691406 133.082031 131.648438 134.089844 C 131.601562 135.097656 131.640625 136.105469 131.765625 137.105469 C 135.859375 170.375 154.707031 250.847656 241.378906 268.53125 C 242.234375 268.707031 243.097656 268.816406 243.96875 268.867188 C 244.84375 268.914062 245.710938 268.898438 246.582031 268.820312 C 247.453125 268.742188 248.3125 268.601562 249.160156 268.394531 C 250.007812 268.191406 250.839844 267.925781 251.648438 267.601562 C 252.460938 267.277344 253.242188 266.894531 253.996094 266.453125 C 254.75 266.015625 255.46875 265.523438 256.152344 264.976562 C 256.835938 264.433594 257.472656 263.84375 258.070312 263.203125 C 258.664062 262.566406 259.210938 261.890625 259.710938 261.171875 L 266.453125 251.429688 C 266.785156 250.945312 267.097656 250.449219 267.382812 249.933594 C 267.667969 249.421875 267.925781 248.898438 268.160156 248.359375 C 268.394531 247.820312 268.601562 247.269531 268.78125 246.710938 C 268.960938 246.152344 269.109375 245.585938 269.234375 245.011719 C 269.359375 244.4375 269.453125 243.859375 269.523438 243.277344 C 269.589844 242.695312 269.628906 242.109375 269.636719 241.523438 C 269.648438 240.9375 269.628906 240.351562 269.578125 239.765625 C 269.53125 239.179688 269.457031 238.597656 269.351562 238.019531 C 269.246094 237.441406 269.113281 236.871094 268.949219 236.308594 C 268.789062 235.742188 268.601562 235.1875 268.386719 234.640625 C 268.171875 234.097656 267.929688 233.5625 267.660156 233.039062 C 267.390625 232.519531 267.097656 232.011719 266.78125 231.515625 C 266.464844 231.023438 266.121094 230.546875 265.757812 230.085938 C 265.390625 229.625 265.003906 229.1875 264.597656 228.765625 C 264.1875 228.34375 263.761719 227.941406 263.3125 227.5625 C 262.867188 227.183594 262.402344 226.824219 261.917969 226.492188 C 261.878906 226.464844 261.84375 226.4375 261.804688 226.410156 L 246.984375 216.324219 C 246.1875 215.78125 245.351562 215.304688 244.480469 214.898438 C 243.605469 214.488281 242.703125 214.152344 241.777344 213.890625 C 240.847656 213.628906 239.90625 213.441406 238.949219 213.332031 C 237.992188 213.222656 237.03125 213.1875 236.066406 213.234375 C 235.105469 213.277344 234.152344 213.398438 233.207031 213.597656 C 232.265625 213.796875 231.34375 214.070312 230.445312 214.417969 C 229.542969 214.765625 228.679688 215.179688 227.847656 215.667969 C 227.015625 216.15625 226.226562 216.707031 225.484375 217.320312 C 224.746094 217.929688 223.960938 218.480469 223.136719 218.964844 C 222.308594 219.453125 221.449219 219.867188 220.558594 220.214844 C 219.664062 220.5625 218.75 220.835938 217.8125 221.039062 C 216.875 221.238281 215.925781 221.363281 214.96875 221.410156 C 214.011719 221.460938 213.058594 221.429688 212.105469 221.324219 C 211.152344 221.21875 210.214844 221.039062 209.292969 220.785156 C 208.367188 220.527344 207.46875 220.199219 206.597656 219.800781 C 205.726562 219.398438 204.894531 218.933594 204.097656 218.398438 C 195.085938 212.324219 182.882812 202.253906 174.960938 188.292969 C 174.515625 187.511719 174.132812 186.707031 173.808594 185.871094 C 173.484375 185.035156 173.226562 184.179688 173.03125 183.304688 C 172.835938 182.429688 172.703125 181.546875 172.640625 180.652344 C 172.578125 179.757812 172.582031 178.863281 172.652344 177.972656 C 172.722656 177.078125 172.859375 176.195312 173.0625 175.320312 C 173.265625 174.449219 173.53125 173.597656 173.859375 172.761719 C 174.191406 171.929688 174.582031 171.125 175.03125 170.351562 C 175.480469 169.574219 175.988281 168.839844 176.546875 168.140625 L 180.359375 163.398438 C 181.214844 162.335938 181.941406 161.191406 182.535156 159.960938 C 183.125 158.730469 183.574219 157.453125 183.875 156.121094 C 184.175781 154.789062 184.324219 153.441406 184.316406 152.074219 C 184.308594 150.710938 184.148438 149.363281 183.832031 148.035156 Z M 183.832031 148.035156 "/></g></svg>