<svg xmlns="http://www.w3.org/2000/svg" xmlns:xlink="http://www.w3.org/1999/xlink" width="500" zoomAndPan="magnify" viewBox="0 0 375 374.999991" height="500" preserveAspectRatio="xMidYMid meet" version="1.2"><defs><clipPath id="2398aa1d42"><path d="M 199 50 L 343 50 L 343 324.96875 L 199 324.96875 Z M 199 50 "/></clipPath><clipPath id="e190d35523"><path d="M 31 50 L 170 50 L 170 324.96875 L 31 324.96875 Z M 31 50 "/></clipPath></defs><g id="6397272d8b"><rect x="0" width="375" y="0" height="374.999991" style="fill:#ffffff;fill-opacity:1;stroke:none;"/><rect x="0" width="375" y="0" height="374.999991" style="fill:#0003ff;fill-opacity:1;stroke:none;"/><path style=" stroke:none;fill-rule:nonzero;fill:#ffffff;fill-opacity:1;" d="M 169.019531 187.726562 C 169.019531 188.726562 168.96875 189.722656 168.871094 190.714844 C 168.773438 191.710938 168.628906 192.695312 168.433594 193.675781 C 168.238281 194.65625 167.996094 195.625 167.707031 196.578125 C 167.414062 197.535156 167.078125 198.476562 166.695312 199.398438 C 166.316406 200.320312 165.886719 201.222656 165.417969 202.105469 C 164.945312 202.984375 164.433594 203.839844 163.878906 204.671875 C 163.324219 205.5 162.730469 206.300781 162.097656 207.074219 C 161.460938 207.847656 160.792969 208.585938 160.085938 209.292969 C 159.378906 210 158.640625 210.667969 157.867188 211.300781 C 157.097656 211.9375 156.292969 212.53125 155.464844 213.085938 C 154.632812 213.640625 153.777344 214.152344 152.898438 214.625 C 152.015625 215.09375 151.113281 215.523438 150.191406 215.902344 C 149.269531 216.285156 148.328125 216.621094 147.375 216.910156 C 146.417969 217.203125 145.449219 217.445312 144.46875 217.640625 C 143.492188 217.835938 142.503906 217.980469 141.507812 218.078125 C 140.515625 218.175781 139.519531 218.226562 138.519531 218.226562 C 137.519531 218.226562 136.523438 218.175781 135.53125 218.078125 C 134.535156 217.980469 133.550781 217.835938 132.570312 217.640625 C 131.589844 217.445312 130.621094 217.203125 129.667969 216.910156 C 128.710938 216.621094 127.773438 216.285156 126.847656 215.902344 C 125.925781 215.523438 125.023438 215.09375 124.144531 214.625 C 123.261719 214.152344 122.40625 213.640625 121.574219 213.085938 C 120.746094 212.53125 119.945312 211.9375 119.171875 211.300781 C 118.398438 210.667969 117.660156 210 116.953125 209.292969 C 116.246094 208.585938 115.578125 207.847656 114.945312 207.074219 C 114.3125 206.300781 113.714844 205.5 113.160156 204.671875 C 112.605469 203.839844 112.09375 202.984375 111.621094 202.105469 C 111.152344 201.222656 110.726562 200.320312 110.34375 199.398438 C 109.960938 198.476562 109.625 197.535156 109.335938 196.578125 C 109.042969 195.625 108.800781 194.65625 108.609375 193.675781 C 108.414062 192.695312 108.265625 191.710938 108.167969 190.714844 C 108.070312 189.722656 108.019531 188.726562 108.019531 187.726562 C 108.019531 186.726562 108.070312 185.730469 108.167969 184.738281 C 108.265625 183.742188 108.414062 182.757812 108.609375 181.777344 C 108.800781 180.796875 109.042969 179.828125 109.335938 178.875 C 109.625 177.917969 109.960938 176.976562 110.34375 176.054688 C 110.726562 175.132812 111.152344 174.230469 111.621094 173.351562 C 112.09375 172.46875 112.605469 171.613281 113.160156 170.78125 C 113.714844 169.953125 114.3125 169.152344 114.945312 168.378906 C 115.578125 167.605469 116.246094 166.867188 116.953125 166.160156 C 117.660156 165.453125 118.398438 164.785156 119.171875 164.152344 C 119.945312 163.515625 120.746094 162.921875 121.574219 162.367188 C 122.40625 161.8125 123.261719 161.300781 124.144531 160.828125 C 125.023438 160.359375 125.925781 159.933594 126.847656 159.550781 C 127.773438 159.167969 128.710938 158.832031 129.667969 158.542969 C 130.621094 158.25 131.589844 158.007812 132.570312 157.8125 C 133.550781 157.621094 134.535156 157.472656 135.53125 157.375 C 136.523438 157.277344 137.519531 157.226562 138.519531 157.226562 C 139.519531 157.226562 140.515625 157.277344 141.507812 157.375 C 142.503906 157.472656 143.492188 157.621094 144.46875 157.8125 C 145.449219 158.007812 146.417969 158.25 147.375 158.542969 C 148.328125 158.832031 149.269531 159.167969 150.191406 159.550781 C 151.113281 159.933594 152.015625 160.359375 152.898438 160.828125 C 153.777344 161.300781 154.632812 161.8125 155.464844 162.367188 C 156.292969 162.921875 157.097656 163.515625 157.867188 164.152344 C 158.640625 164.785156 159.378906 165.453125 160.085938 166.160156 C 160.792969 166.867188 161.460938 167.605469 162.097656 168.378906 C 162.730469 169.152344 163.324219 169.953125 163.878906 170.78125 C 164.433594 171.613281 164.945312 172.46875 165.417969 173.351562 C 165.886719 174.230469 166.316406 175.132812 166.695312 176.054688 C 167.078125 176.976562 167.414062 177.917969 167.707031 178.875 C 167.996094 179.828125 168.238281 180.796875 168.433594 181.777344 C 168.628906 182.757812 168.773438 183.742188 168.871094 184.738281 C 168.96875 185.730469 169.019531 186.726562 169.019531 187.726562 Z M 169.019531 187.726562 "/><path style=" stroke:none;fill-rule:nonzero;fill:#ffffff;fill-opacity:1;" d="M 260.515625 187.726562 C 260.515625 188.726562 260.464844 189.722656 260.367188 190.714844 C 260.269531 191.710938 260.125 192.695312 259.929688 193.675781 C 259.734375 194.65625 259.492188 195.625 259.203125 196.578125 C 258.910156 197.535156 258.574219 198.476562 258.191406 199.398438 C 257.8125 200.320312 257.382812 201.222656 256.914062 202.105469 C 256.441406 202.984375 255.929688 203.839844 255.375 204.671875 C 254.820312 205.5 254.226562 206.300781 253.589844 207.074219 C 252.957031 207.847656 252.289062 208.585938 251.582031 209.292969 C 250.875 210 250.136719 210.667969 249.363281 211.300781 C 248.59375 211.9375 247.789062 212.53125 246.960938 213.085938 C 246.128906 213.640625 245.273438 214.152344 244.394531 214.625 C 243.511719 215.09375 242.609375 215.523438 241.6875 215.902344 C 240.765625 216.285156 239.824219 216.621094 238.871094 216.910156 C 237.914062 217.203125 236.945312 217.445312 235.964844 217.640625 C 234.984375 217.835938 234 217.980469 233.003906 218.078125 C 232.011719 218.175781 231.015625 218.226562 230.015625 218.226562 C 229.015625 218.226562 228.019531 218.175781 227.027344 218.078125 C 226.03125 217.980469 225.046875 217.835938 224.066406 217.640625 C 223.085938 217.445312 222.117188 217.203125 221.164062 216.910156 C 220.207031 216.621094 219.265625 216.285156 218.34375 215.902344 C 217.421875 215.523438 216.519531 215.09375 215.640625 214.625 C 214.757812 214.152344 213.902344 213.640625 213.070312 213.085938 C 212.242188 212.53125 211.441406 211.9375 210.667969 211.300781 C 209.894531 210.667969 209.15625 210 208.449219 209.292969 C 207.742188 208.585938 207.074219 207.847656 206.441406 207.074219 C 205.804688 206.300781 205.210938 205.5 204.65625 204.671875 C 204.101562 203.839844 203.589844 202.984375 203.117188 202.105469 C 202.648438 201.222656 202.222656 200.320312 201.839844 199.398438 C 201.457031 198.476562 201.121094 197.535156 200.832031 196.578125 C 200.539062 195.625 200.296875 194.65625 200.101562 193.675781 C 199.910156 192.695312 199.761719 191.710938 199.664062 190.714844 C 199.566406 189.722656 199.515625 188.726562 199.515625 187.726562 C 199.515625 186.726562 199.566406 185.730469 199.664062 184.738281 C 199.761719 183.742188 199.910156 182.757812 200.101562 181.777344 C 200.296875 180.796875 200.539062 179.828125 200.832031 178.875 C 201.121094 177.917969 201.457031 176.976562 201.839844 176.054688 C 202.222656 175.132812 202.648438 174.230469 203.117188 173.351562 C 203.589844 172.46875 204.101562 171.613281 204.65625 170.78125 C 205.210938 169.953125 205.804688 169.152344 206.441406 168.378906 C 207.074219 167.605469 207.742188 166.867188 208.449219 166.160156 C 209.15625 165.453125 209.894531 164.785156 210.667969 164.152344 C 211.441406 163.515625 212.242188 162.921875 213.070312 162.367188 C 213.902344 161.8125 214.757812 161.300781 215.640625 160.828125 C 216.519531 160.359375 217.421875 159.933594 218.34375 159.550781 C 219.265625 159.167969 220.207031 158.832031 221.164062 158.542969 C 222.117188 158.25 223.085938 158.007812 224.066406 157.8125 C 225.046875 157.621094 226.03125 157.472656 227.027344 157.375 C 228.019531 157.277344 229.015625 157.226562 230.015625 157.226562 C 231.015625 157.226562 232.011719 157.277344 233.003906 157.375 C 234 157.472656 234.984375 157.621094 235.964844 157.8125 C 236.945312 158.007812 237.914062 158.25 238.871094 158.542969 C 239.824219 158.832031 240.765625 159.167969 241.6875 159.550781 C 242.609375 159.933594 243.511719 160.359375 244.394531 160.828125 C 245.273438 161.300781 246.128906 161.8125 246.960938 162.367188 C 247.789062 162.921875 248.59375 163.515625 249.363281 164.152344 C 250.136719 164.785156 250.875 165.453125 251.582031 166.160156 C 252.289062 166.867188 252.957031 167.605469 253.589844 168.378906 C 254.226562 169.152344 254.820312 169.953125 255.375 170.78125 C 255.929688 171.613281 256.441406 172.46875 256.914062 173.351562 C 257.382812 174.230469 257.8125 175.132812 258.191406 176.054688 C 258.574219 176.976562 258.910156 177.917969 259.203125 178.875 C 259.492188 179.828125 259.734375 180.796875 259.929688 181.777344 C 260.125 182.757812 260.269531 183.742188 260.367188 184.738281 C 260.464844 185.730469 260.515625 186.726562 260.515625 187.726562 Z M 260.515625 187.726562 "/><path style=" stroke:none;fill-rule:nonzero;fill:#ffffff;fill-opacity:1;" d="M 252.890625 134.355469 C 251.464844 134.355469 250.066406 134.160156 248.695312 133.765625 C 198.105469 119.28125 170.414062 119.28125 119.839844 133.765625 C 118.875 134.042969 117.898438 134.222656 116.898438 134.304688 C 115.902344 134.386719 114.902344 134.371094 113.910156 134.253906 C 112.914062 134.140625 111.941406 133.933594 110.988281 133.625 C 110.035156 133.320312 109.117188 132.925781 108.242188 132.4375 C 107.367188 131.953125 106.546875 131.386719 105.785156 130.738281 C 105.019531 130.089844 104.328125 129.375 103.703125 128.589844 C 103.082031 127.804688 102.542969 126.96875 102.082031 126.078125 C 101.625 125.1875 101.257812 124.261719 100.984375 123.296875 C 100.707031 122.335938 100.53125 121.355469 100.449219 120.355469 C 100.367188 119.359375 100.382812 118.363281 100.496094 117.367188 C 100.609375 116.375 100.820312 115.398438 101.125 114.445312 C 101.429688 113.492188 101.828125 112.578125 102.3125 111.703125 C 102.800781 110.828125 103.367188 110.007812 104.011719 109.242188 C 104.660156 108.480469 105.375 107.785156 106.160156 107.164062 C 106.945312 106.539062 107.78125 106 108.671875 105.542969 C 109.5625 105.085938 110.488281 104.71875 111.453125 104.441406 C 167.25 88.492188 201.269531 88.492188 257.082031 104.441406 C 257.960938 104.691406 258.808594 105.019531 259.625 105.421875 C 260.445312 105.824219 261.222656 106.296875 261.953125 106.839844 C 262.6875 107.382812 263.367188 107.984375 263.992188 108.648438 C 264.617188 109.3125 265.179688 110.027344 265.675781 110.792969 C 266.175781 111.554688 266.597656 112.359375 266.953125 113.199219 C 267.304688 114.042969 267.582031 114.90625 267.777344 115.796875 C 267.976562 116.6875 268.09375 117.589844 268.128906 118.5 C 268.167969 119.410156 268.121094 120.320312 267.996094 121.222656 C 267.867188 122.125 267.660156 123.011719 267.375 123.875 C 267.089844 124.742188 266.730469 125.578125 266.296875 126.378906 C 265.859375 127.179688 265.359375 127.9375 264.785156 128.648438 C 264.214844 129.359375 263.585938 130.015625 262.898438 130.613281 C 262.210938 131.210938 261.472656 131.742188 260.691406 132.210938 C 259.90625 132.675781 259.085938 133.070312 258.230469 133.390625 C 257.378906 133.707031 256.503906 133.949219 255.605469 134.109375 C 254.707031 134.273438 253.800781 134.355469 252.890625 134.355469 Z M 252.890625 134.355469 "/><path style=" stroke:none;fill-rule:nonzero;fill:#ffffff;fill-opacity:1;" d="M 184.269531 283.097656 C 156.886719 282.875 130.074219 278.847656 103.835938 271.011719 C 102.871094 270.734375 101.945312 270.367188 101.054688 269.910156 C 100.164062 269.453125 99.328125 268.914062 98.542969 268.289062 C 97.757812 267.667969 97.042969 266.972656 96.394531 266.210938 C 95.75 265.445312 95.183594 264.625 94.695312 263.75 C 94.210938 262.875 93.8125 261.960938 93.507812 261.007812 C 93.203125 260.054688 92.992188 259.078125 92.878906 258.085938 C 92.765625 257.089844 92.75 256.09375 92.832031 255.097656 C 92.914062 254.097656 93.089844 253.117188 93.367188 252.15625 C 93.640625 251.191406 94.007812 250.265625 94.464844 249.375 C 94.925781 248.484375 95.464844 247.648438 96.085938 246.863281 C 96.710938 246.078125 97.402344 245.363281 98.167969 244.714844 C 98.929688 244.070312 99.75 243.5 100.625 243.015625 C 101.503906 242.53125 102.417969 242.132812 103.371094 241.828125 C 104.324219 241.523438 105.296875 241.3125 106.292969 241.199219 C 107.289062 241.082031 108.285156 241.066406 109.28125 241.148438 C 110.28125 241.230469 111.261719 241.410156 112.222656 241.6875 C 118.050781 243.476562 123.9375 245.050781 129.882812 246.402344 C 135.828125 247.753906 141.816406 248.882812 147.84375 249.789062 C 153.875 250.695312 159.929688 251.375 166.007812 251.828125 C 172.089844 252.28125 178.179688 252.507812 184.277344 252.507812 C 190.371094 252.507812 196.460938 252.28125 202.542969 251.828125 C 208.621094 251.375 214.675781 250.695312 220.707031 249.789062 C 226.734375 248.882812 232.722656 247.753906 238.667969 246.402344 C 244.613281 245.050781 250.5 243.476562 256.328125 241.6875 C 257.292969 241.410156 258.269531 241.234375 259.269531 241.152344 C 260.265625 241.070312 261.261719 241.085938 262.257812 241.199219 C 263.253906 241.3125 264.226562 241.523438 265.179688 241.832031 C 266.132812 242.136719 267.046875 242.53125 267.921875 243.019531 C 268.796875 243.503906 269.617188 244.070312 270.378906 244.71875 C 271.144531 245.367188 271.835938 246.082031 272.460938 246.867188 C 273.082031 247.648438 273.621094 248.488281 274.078125 249.378906 C 274.539062 250.269531 274.902344 251.195312 275.179688 252.15625 C 275.453125 253.117188 275.632812 254.097656 275.714844 255.097656 C 275.796875 256.09375 275.78125 257.089844 275.667969 258.085938 C 275.554688 259.078125 275.34375 260.054688 275.039062 261.007812 C 274.734375 261.960938 274.335938 262.875 273.851562 263.75 C 273.367188 264.625 272.800781 265.445312 272.152344 266.207031 C 271.503906 266.972656 270.789062 267.667969 270.003906 268.289062 C 269.222656 268.910156 268.382812 269.453125 267.496094 269.910156 C 266.605469 270.367188 265.679688 270.734375 264.714844 271.011719 C 238.472656 278.847656 211.65625 282.875 184.269531 283.097656 Z M 184.269531 283.097656 "/><g clip-rule="nonzero" clip-path="url(#2398aa1d42)"><path style=" stroke:none;fill-rule:nonzero;fill:#ffffff;fill-opacity:1;" d="M 268.140625 324.96875 C 248.5 324.96875 222.390625 283.117188 222.390625 263.972656 C 222.390625 262.972656 222.488281 261.980469 222.683594 261 C 222.878906 260.015625 223.167969 259.0625 223.550781 258.136719 C 223.933594 257.210938 224.40625 256.332031 224.960938 255.5 C 225.515625 254.667969 226.148438 253.898438 226.859375 253.191406 C 227.566406 252.480469 228.335938 251.851562 229.167969 251.292969 C 230 250.738281 230.878906 250.269531 231.804688 249.882812 C 232.730469 249.5 233.683594 249.210938 234.664062 249.015625 C 235.648438 248.820312 236.640625 248.722656 237.640625 248.722656 C 238.640625 248.722656 239.632812 248.820312 240.617188 249.015625 C 241.597656 249.210938 242.550781 249.5 243.476562 249.882812 C 244.402344 250.269531 245.28125 250.738281 246.113281 251.292969 C 246.945312 251.851562 247.714844 252.480469 248.421875 253.191406 C 249.132812 253.898438 249.761719 254.667969 250.320312 255.5 C 250.875 256.332031 251.347656 257.210938 251.730469 258.136719 C 252.113281 259.0625 252.402344 260.015625 252.597656 261 C 252.792969 261.980469 252.890625 262.972656 252.890625 263.972656 C 252.890625 270.332031 264.410156 288.257812 271.113281 294.199219 C 284.128906 291.847656 298.90625 274.785156 307.574219 257.75 C 316.082031 235.375 312.8125 176.601562 285.925781 98.480469 C 278.875 94.230469 271.464844 90.75 263.691406 88.035156 C 255.921875 85.320312 247.953125 83.429688 239.789062 82.363281 L 228.925781 109.519531 C 228.554688 110.449219 228.09375 111.335938 227.546875 112.175781 C 227.003906 113.011719 226.378906 113.792969 225.679688 114.507812 C 224.980469 115.222656 224.21875 115.867188 223.390625 116.433594 C 222.566406 117 221.691406 117.480469 220.773438 117.875 C 219.851562 118.269531 218.902344 118.570312 217.921875 118.777344 C 216.941406 118.984375 215.953125 119.09375 214.949219 119.105469 C 213.949219 119.117188 212.957031 119.03125 211.972656 118.847656 C 210.988281 118.664062 210.03125 118.386719 209.101562 118.015625 C 208.171875 117.640625 207.289062 117.183594 206.449219 116.636719 C 205.609375 116.089844 204.832031 115.46875 204.113281 114.769531 C 203.398438 114.070312 202.757812 113.308594 202.191406 112.480469 C 201.625 111.65625 201.144531 110.78125 200.75 109.863281 C 200.355469 108.941406 200.054688 107.992188 199.847656 107.011719 C 199.640625 106.03125 199.53125 105.042969 199.515625 104.039062 C 199.503906 103.039062 199.589844 102.046875 199.773438 101.0625 C 199.957031 100.078125 200.234375 99.121094 200.609375 98.191406 L 215.855469 60.066406 C 216.164062 59.300781 216.53125 58.5625 216.957031 57.855469 C 217.382812 57.148438 217.863281 56.480469 218.398438 55.851562 C 218.933594 55.222656 219.515625 54.640625 220.144531 54.109375 C 220.773438 53.574219 221.441406 53.09375 222.148438 52.667969 C 222.855469 52.242188 223.59375 51.875 224.359375 51.570312 C 225.125 51.261719 225.914062 51.019531 226.71875 50.839844 C 227.523438 50.664062 228.339844 50.550781 229.164062 50.503906 C 229.988281 50.457031 230.8125 50.480469 231.632812 50.566406 C 238.363281 51.003906 245.035156 51.878906 251.652344 53.183594 C 258.269531 54.492188 264.769531 56.222656 271.164062 58.378906 C 277.554688 60.53125 283.777344 63.09375 289.835938 66.058594 C 295.890625 69.023438 301.730469 72.367188 307.351562 76.09375 C 308.664062 77.003906 309.804688 78.09375 310.769531 79.363281 C 311.738281 80.632812 312.488281 82.023438 313.019531 83.527344 C 340.664062 161.871094 349.554688 234.921875 335.671875 269.636719 C 335.511719 270.027344 335.335938 270.402344 335.152344 270.796875 C 322.046875 296.988281 297.554688 324.96875 268.140625 324.96875 Z M 272.84375 295.523438 Z M 272.84375 295.523438 "/></g><g clip-rule="nonzero" clip-path="url(#e190d35523)"><path style=" stroke:none;fill-rule:nonzero;fill:#ffffff;fill-opacity:1;" d="M 102.957031 324.96875 C 74.472656 324.96875 50.90625 296.851562 38.363281 270.53125 C 38.1875 270.164062 38.027344 269.769531 37.882812 269.402344 C 24.707031 234.824219 33.179688 161.957031 59.453125 83.75 C 59.953125 82.257812 60.671875 80.875 61.601562 79.601562 C 62.53125 78.332031 63.632812 77.230469 64.902344 76.300781 C 70.171875 72.566406 75.671875 69.207031 81.398438 66.226562 C 87.128906 63.246094 93.03125 60.667969 99.113281 58.492188 C 105.195312 56.320312 111.394531 54.570312 117.714844 53.242188 C 124.035156 51.917969 130.417969 51.027344 136.859375 50.574219 C 137.679688 50.484375 138.503906 50.460938 139.332031 50.503906 C 140.15625 50.550781 140.976562 50.660156 141.78125 50.835938 C 142.589844 51.011719 143.378906 51.253906 144.148438 51.558594 C 144.917969 51.867188 145.65625 52.230469 146.367188 52.65625 C 147.078125 53.082031 147.746094 53.5625 148.378906 54.097656 C 149.007812 54.632812 149.59375 55.214844 150.128906 55.84375 C 150.667969 56.476562 151.148438 57.144531 151.578125 57.851562 C 152.003906 58.5625 152.371094 59.300781 152.679688 60.066406 L 167.929688 98.191406 C 168.300781 99.121094 168.578125 100.078125 168.761719 101.0625 C 168.945312 102.046875 169.03125 103.039062 169.019531 104.039062 C 169.007812 105.042969 168.898438 106.03125 168.691406 107.011719 C 168.480469 107.992188 168.179688 108.941406 167.789062 109.863281 C 167.394531 110.78125 166.914062 111.65625 166.347656 112.480469 C 165.78125 113.308594 165.136719 114.070312 164.421875 114.769531 C 163.707031 115.46875 162.925781 116.089844 162.089844 116.636719 C 161.25 117.183594 160.363281 117.640625 159.433594 118.015625 C 158.503906 118.386719 157.546875 118.664062 156.5625 118.847656 C 155.578125 119.03125 154.585938 119.117188 153.585938 119.105469 C 152.582031 119.09375 151.59375 118.984375 150.613281 118.777344 C 149.632812 118.570312 148.683594 118.269531 147.761719 117.875 C 146.84375 117.480469 145.96875 117 145.144531 116.433594 C 144.316406 115.867188 143.554688 115.222656 142.855469 114.507812 C 142.15625 113.792969 141.535156 113.011719 140.988281 112.175781 C 140.441406 111.335938 139.980469 110.449219 139.609375 109.519531 L 128.777344 82.429688 C 121.289062 83.515625 114.007812 85.386719 106.925781 88.050781 C 99.84375 90.710938 93.132812 94.101562 86.785156 98.222656 C 61.121094 176.542969 58.027344 235.527344 66.199219 258.003906 C 74.25 274.625 87.730469 291.277344 99.613281 294.058594 C 103.457031 289.765625 106.734375 285.070312 109.445312 279.984375 C 112.15625 274.898438 114.222656 269.558594 115.644531 263.972656 C 115.644531 262.972656 115.742188 261.980469 115.9375 261 C 116.132812 260.015625 116.421875 259.0625 116.808594 258.136719 C 117.191406 257.210938 117.660156 256.332031 118.214844 255.5 C 118.773438 254.667969 119.40625 253.898438 120.113281 253.191406 C 120.820312 252.480469 121.589844 251.851562 122.421875 251.292969 C 123.253906 250.738281 124.132812 250.269531 125.058594 249.882812 C 125.984375 249.5 126.9375 249.210938 127.921875 249.015625 C 128.902344 248.820312 129.894531 248.722656 130.894531 248.722656 C 131.898438 248.722656 132.886719 248.820312 133.871094 249.015625 C 134.851562 249.210938 135.804688 249.5 136.730469 249.882812 C 137.65625 250.269531 138.535156 250.738281 139.367188 251.292969 C 140.199219 251.851562 140.96875 252.480469 141.679688 253.191406 C 142.386719 253.898438 143.019531 254.667969 143.574219 255.5 C 144.132812 256.332031 144.601562 257.210938 144.984375 258.136719 C 145.367188 259.0625 145.65625 260.015625 145.851562 261 C 146.046875 261.980469 146.144531 262.972656 146.144531 263.972656 C 145.476562 270.585938 143.984375 277.007812 141.675781 283.238281 C 139.363281 289.46875 136.308594 295.3125 132.503906 300.761719 C 117.070312 324.96875 106.816406 324.96875 102.957031 324.96875 Z M 102.957031 324.96875 "/></g></g></svg>