<svg xmlns="http://www.w3.org/2000/svg" xmlns:xlink="http://www.w3.org/1999/xlink" width="500" zoomAndPan="magnify" viewBox="0 0 375 374.999991" height="500" preserveAspectRatio="xMidYMid meet" version="1.2"><defs><clipPath id="092d53a048"><path d="M 24.535156 131.25 L 137.035156 131.25 L 137.035156 243.75 L 24.535156 243.75 Z M 24.535156 131.25 "/></clipPath><clipPath id="905bd6e851"><path d="M 41.785156 131.25 L 119.785156 131.25 C 124.363281 131.25 128.75 133.066406 131.984375 136.300781 C 135.21875 139.539062 137.035156 143.925781 137.035156 148.5 L 137.035156 226.5 C 137.035156 231.074219 135.21875 235.460938 131.984375 238.699219 C 128.75 241.933594 124.363281 243.75 119.785156 243.75 L 41.785156 243.75 C 37.210938 243.75 32.824219 241.933594 29.589844 238.699219 C 26.355469 235.460938 24.535156 231.074219 24.535156 226.5 L 24.535156 148.5 C 24.535156 143.925781 26.355469 139.539062 29.589844 136.300781 C 32.824219 133.066406 37.210938 131.25 41.785156 131.25 Z M 41.785156 131.25 "/></clipPath><clipPath id="e8d6e96063"><path d="M 0 64.453125 L 375 64.453125 L 375 310.453125 L 0 310.453125 Z M 0 64.453125 "/></clipPath></defs><g id="c7fe30eb85"><g clip-rule="nonzero" clip-path="url(#092d53a048)"><g clip-rule="nonzero" clip-path="url(#905bd6e851)"><path style=" stroke:none;fill-rule:nonzero;fill:#222222;fill-opacity:1;" d="M 24.535156 131.25 L 137.035156 131.25 L 137.035156 243.75 L 24.535156 243.75 Z M 24.535156 131.25 "/></g></g><g clip-rule="nonzero" clip-path="url(#e8d6e96063)"><path style=" stroke:none;fill-rule:nonzero;fill:#ff3131;fill-opacity:1;" d="M 317.542969 64.453125 L 57.3125 64.453125 C 25.777344 64.453125 0.15625 90.070312 0.15625 121.609375 L 0.15625 253.296875 C 0.15625 284.835938 25.777344 310.453125 57.3125 310.453125 L 317.542969 310.453125 C 349.082031 310.453125 374.699219 284.835938 374.699219 253.296875 L 374.699219 121.609375 C 374.699219 90.070312 349.082031 64.453125 317.542969 64.453125 Z M 148.925781 254.195312 L 148.925781 120.785156 L 264.433594 187.527344 L 148.925781 254.273438 Z M 148.925781 254.195312 "/></g></g></svg>